<svg xmlns="http://www.w3.org/2000/svg" width="399" height="463.001" viewBox="0 0 399 463.001">
  <g id="coffee-maker-svgrepo-com" transform="translate(53 -106)">
    <g id="Group_2" data-name="Group 2" transform="translate(-59 13)">
      <g id="Group_1" data-name="Group 1" transform="translate(-26 93)">
        <path id="Path_446" data-name="Path 446" d="M199.5,159a47.227,47.227,0,0,0,27.842-9.051L234.2,156.8A7.5,7.5,0,1,0,244.8,146.2l-6.854-6.854a47.463,47.463,0,0,0-66.291-66.291L164.8,66.2A7.5,7.5,0,0,0,154.2,76.8l6.854,6.854A47.463,47.463,0,0,0,199.5,159Zm0-80a32.481,32.481,0,0,1,27.655,49.548l-44.7-44.7A32.308,32.308,0,0,1,199.5,79ZM171.846,94.452l44.7,44.7a32.481,32.481,0,0,1-44.7-44.7Z"/>
        <path id="Path_447" data-name="Path 447" d="M407.5,208H350.975c.011-.167.025-.333.025-.5V189.766A23.537,23.537,0,0,0,367,167.5V55.5A23.527,23.527,0,0,0,343.5,32H343V15.5A15.517,15.517,0,0,0,327.5,0H71.5A15.517,15.517,0,0,0,56,15.5V32h-.5A23.527,23.527,0,0,0,32,55.5v112a23.537,23.537,0,0,0,16,22.266V385.235A23.537,23.537,0,0,0,32,407.5v32A23.527,23.527,0,0,0,55.5,463h288A23.527,23.527,0,0,0,367,439.5v-32a23.537,23.537,0,0,0-16-22.266V255h56.5a23.5,23.5,0,0,0,0-47ZM71,15.5a.5.5,0,0,1,.5-.5h256a.5.5,0,0,1,.5.5V32H71Zm-24,152V55.5A8.51,8.51,0,0,1,55.5,47h288a8.51,8.51,0,0,1,8.5,8.5v112a8.51,8.51,0,0,1-8.5,8.5H55.5A8.51,8.51,0,0,1,47,167.5ZM63,384V191h97v17H143.5a7.5,7.5,0,0,0,0,15h1.495l5.118,35.823A23.616,23.616,0,0,0,173.378,279H176v8.5a7.5,7.5,0,0,0,15,0V279h17v8.5a7.5,7.5,0,0,0,15,0V279h2.623a23.615,23.615,0,0,0,23.264-20.177L251.719,239H280v8.5a7.5,7.5,0,0,0,7.5,7.5H336V384Zm220.365,15-6.15,12.3a8.455,8.455,0,0,1-7.6,4.7H129.39a8.455,8.455,0,0,1-7.6-4.7L115.635,399ZM238.852,223l-4.815,33.7a8.541,8.541,0,0,1-8.415,7.3H173.377a8.543,8.543,0,0,1-8.415-7.3L160.148,223ZM175,208V191h49v17Zm137,32H295V223h17Zm-24.5-32a7.5,7.5,0,0,0-7.5,7.5V224H253.862l.143-1H255.5a7.5,7.5,0,0,0,0-15H239V191h97v16.5c0,.169.014.335.025.5ZM352,407.5v32a8.51,8.51,0,0,1-8.5,8.5H55.5a8.51,8.51,0,0,1-8.5-8.5v-32a8.51,8.51,0,0,1,8.5-8.5H98.865l9.5,19.01A23.371,23.371,0,0,0,129.389,431H269.612a23.373,23.373,0,0,0,21.019-12.99L300.136,399H343.5A8.509,8.509,0,0,1,352,407.5ZM407.5,240H327V223h80.5a8.5,8.5,0,0,1,0,17Z"/>
        <path id="Path_448" data-name="Path 448" d="M311.5,111A23.5,23.5,0,1,0,288,87.5,23.527,23.527,0,0,0,311.5,111Zm0-32a8.5,8.5,0,1,1-8.5,8.5A8.51,8.51,0,0,1,311.5,79Z"/>
        <path id="Path_449" data-name="Path 449" d="M263.5,95h8a7.5,7.5,0,0,0,0-15h-8a7.5,7.5,0,0,0,0,15Z"/>
      </g>
    </g>
  </g>
</svg>
